<!--?xml version="1.0" standalone="no"?-->
              <svg id="sw-js-blob-svg" viewBox="0 0 100 100" xmlns="http://www.w3.org/2000/svg" version="1.1">
                    <defs> 
                        <linearGradient id="sw-gradient" x1="0" x2="1" y1="1" y2="0">
                            <stop id="stop1" stop-color="rgba(237, 33, 58, 1)" offset="0%"></stop>
                            <stop id="stop2" stop-color="rgba(147, 41, 30, 1)" offset="100%"></stop>
                        </linearGradient>
                    </defs>
                <path fill="url(#sw-gradient)" d="M26.8,-30.7C34.3,-25.7,39.6,-16.8,40,-8C40.3,0.8,35.9,9.4,30.5,16.5C25.1,23.5,18.8,28.9,10.9,33.3C3,37.6,-6.6,40.9,-15.1,38.9C-23.7,37,-31.3,29.7,-35.1,21.2C-38.8,12.7,-38.7,3,-36.9,-6.4C-35.2,-15.8,-31.8,-24.8,-25.3,-30C-18.9,-35.2,-9.5,-36.5,0.1,-36.6C9.7,-36.8,19.4,-35.7,26.8,-30.7Z" width="100%" height="100%" transform="translate(50 50)" stroke-width="0" style="transition: all 0.3s ease 0s;"></path>
              </svg>