<?xml version="1.0" standalone="no"?>
<svg xmlns:xlink="http://www.w3.org/1999/xlink" id="wave" style="transform:rotate(0deg); transition: 0.3s" viewBox="0 0 1440 490" version="1.1" xmlns="http://www.w3.org/2000/svg"><defs><linearGradient id="sw-gradient-0" x1="0" x2="0" y1="1" y2="0"><stop stop-color="rgba(255, 147, 76, 1)" offset="0%"/><stop stop-color="rgba(252, 104, 111, 1)" offset="100%"/></linearGradient></defs><path style="transform:translate(0, 0px); opacity:1" fill="url(#sw-gradient-0)" d="M0,98L360,343L720,147L1080,343L1440,49L1800,98L2160,294L2520,245L2880,49L3240,441L3600,294L3960,392L4320,392L4680,245L5040,392L5400,49L5760,245L6120,392L6480,392L6840,49L7200,343L7560,0L7920,294L8280,245L8640,245L8640,490L8280,490L7920,490L7560,490L7200,490L6840,490L6480,490L6120,490L5760,490L5400,490L5040,490L4680,490L4320,490L3960,490L3600,490L3240,490L2880,490L2520,490L2160,490L1800,490L1440,490L1080,490L720,490L360,490L0,490Z"/><defs><linearGradient id="sw-gradient-1" x1="0" x2="0" y1="1" y2="0"><stop stop-color="rgba(255, 147, 76, 1)" offset="0%"/><stop stop-color="rgba(252, 104, 111, 1)" offset="100%"/></linearGradient></defs><path style="transform:translate(0, 50px); opacity:0.9" fill="url(#sw-gradient-1)" d="M0,147L360,343L720,98L1080,49L1440,0L1800,98L2160,98L2520,343L2880,392L3240,392L3600,147L3960,343L4320,294L4680,147L5040,343L5400,0L5760,441L6120,98L6480,98L6840,196L7200,245L7560,392L7920,245L8280,49L8640,441L8640,490L8280,490L7920,490L7560,490L7200,490L6840,490L6480,490L6120,490L5760,490L5400,490L5040,490L4680,490L4320,490L3960,490L3600,490L3240,490L2880,490L2520,490L2160,490L1800,490L1440,490L1080,490L720,490L360,490L0,490Z"/><defs><linearGradient id="sw-gradient-2" x1="0" x2="0" y1="1" y2="0"><stop stop-color="rgba(252, 104, 111, 1)" offset="0%"/><stop stop-color="rgba(255, 147, 76, 1)" offset="100%"/></linearGradient></defs><path style="transform:translate(0, 100px); opacity:0.8" fill="url(#sw-gradient-2)" d="M0,98L360,98L720,343L1080,196L1440,343L1800,441L2160,98L2520,441L2880,49L3240,98L3600,392L3960,49L4320,98L4680,49L5040,147L5400,147L5760,245L6120,98L6480,98L6840,0L7200,49L7560,147L7920,392L8280,0L8640,392L8640,490L8280,490L7920,490L7560,490L7200,490L6840,490L6480,490L6120,490L5760,490L5400,490L5040,490L4680,490L4320,490L3960,490L3600,490L3240,490L2880,490L2520,490L2160,490L1800,490L1440,490L1080,490L720,490L360,490L0,490Z"/><defs><linearGradient id="sw-gradient-3" x1="0" x2="0" y1="1" y2="0"><stop stop-color="rgba(252, 104, 111, 1)" offset="0%"/><stop stop-color="rgba(255, 147, 76, 1)" offset="100%"/></linearGradient></defs><path style="transform:translate(0, 150px); opacity:0.7" fill="url(#sw-gradient-3)" d="M0,343L360,147L720,49L1080,245L1440,392L1800,441L2160,49L2520,196L2880,294L3240,147L3600,147L3960,441L4320,98L4680,245L5040,343L5400,441L5760,441L6120,98L6480,392L6840,49L7200,147L7560,294L7920,343L8280,343L8640,392L8640,490L8280,490L7920,490L7560,490L7200,490L6840,490L6480,490L6120,490L5760,490L5400,490L5040,490L4680,490L4320,490L3960,490L3600,490L3240,490L2880,490L2520,490L2160,490L1800,490L1440,490L1080,490L720,490L360,490L0,490Z"/></svg>